<?xml version="1.0" encoding="utf-8"?>
<!-- Generator: Avocode 2.5.2 - http://avocode.com -->
<svg height="10" width="6" xmlns:xlink="http://www.w3.org/1999/xlink" xmlns="http://www.w3.org/2000/svg" viewBox="0 0 6 10">
    <path  fill-rule="evenodd" d="M 5.93 4.83 L 0.92 0.07 C 0.82 -0.02 0.66 -0.02 0.56 0.07 L 0.07 0.53 C 0.03 0.57 0 0.64 0 0.7 C 0 0.76 0.03 0.83 0.07 0.87 L 4.42 5 L 0.07 9.13 C 0.03 9.17 0 9.24 0 9.3 C 0 9.36 0.03 9.43 0.07 9.47 L 0.56 9.93 C 0.61 9.98 0.67 10 0.74 10 C 0.8 10 0.87 9.98 0.92 9.93 L 5.93 5.17 C 6.02 5.08 6.02 4.92 5.93 4.83 L 5.93 4.83 Z M 5.93 4.83" />
</svg>