<?xml version="1.0" encoding="utf-8"?>
<!-- Generator: Avocode 2.4.5 - http://avocode.com -->
<svg height="10" width="20" xmlns:xlink="http://www.w3.org/1999/xlink" xmlns="http://www.w3.org/2000/svg" viewBox="0 0 20 10">
    <path fill="#4a4a4a" fill-rule="evenodd" d="M 19.73 4.52 L 13.78 0.2 C 13.41 -0.07 12.82 -0.07 12.46 0.2 C 12.1 0.46 12.1 0.89 12.46 1.15 L 16.82 4.32 L 0.93 4.32 C 0.42 4.32 0 4.63 0 5 C 0 5.37 0.42 5.68 0.93 5.68 L 16.82 5.68 L 12.46 8.85 C 12.1 9.11 12.1 9.54 12.46 9.8 C 12.64 9.93 12.88 10 13.12 10 C 13.36 10 13.59 9.93 13.78 9.8 L 19.73 5.48 C 20.09 5.21 20.09 4.79 19.73 4.52 L 19.73 4.52 Z M 19.73 4.52" />
</svg>