<?xml version="1.0" encoding="utf-8"?>
<!-- Generator: Avocode 2.4.5 - http://avocode.com -->
<svg height="15" width="15" xmlns:xlink="http://www.w3.org/1999/xlink" xmlns="http://www.w3.org/2000/svg" viewBox="0 0 15 15">
    <path fill="#ffffff" fill-rule="evenodd" d="M 14.52 0.99 C 14.5 0.71 14.28 0.5 14.01 0.47 L 8.89 0 C 8.72 -0.01 8.55 0.05 8.43 0.17 L 0.17 8.43 C -0.06 8.66 -0.06 9.02 0.17 9.24 L 5.76 14.83 C 5.98 15.05 6.34 15.05 6.56 14.83 L 14.83 6.56 C 14.95 6.44 15.01 6.28 14.99 6.11 L 14.52 0.99 L 14.52 0.99 Z M 11.84 3.23 C 11.54 3.53 11.06 3.53 10.77 3.23 C 10.47 2.93 10.47 2.45 10.77 2.16 C 11.06 1.86 11.54 1.86 11.84 2.16 C 12.13 2.45 12.13 2.93 11.84 3.23 L 11.84 3.23 Z M 11.84 3.23" />
</svg>