<?xml version="1.0" encoding="utf-8"?>
<!-- Generator: Avocode 2.5.2 - http://avocode.com -->
<svg height="15" width="15" xmlns:xlink="http://www.w3.org/1999/xlink" xmlns="http://www.w3.org/2000/svg" viewBox="0 0 15 15">
    <path fill="#7e7e7e" fill-rule="evenodd" d="M 10.42 9.77 C 11.41 8.74 12.02 7.35 12.02 5.82 C 12.02 2.62 9.33 0 6.01 0 C 2.7 0 0.01 2.62 0.01 5.82 C 0.01 9.03 2.7 11.64 6.01 11.64 C 7.36 11.64 8.61 11.21 9.61 10.48 L 14.08 14.81 C 14.19 14.92 14.32 14.97 14.46 14.97 C 14.6 14.97 14.74 14.92 14.84 14.81 C 15.05 14.61 15.05 14.28 14.84 14.07 L 10.42 9.77 L 10.42 9.77 Z M 1.09 5.82 C 1.09 3.2 3.3 1.05 6.01 1.05 C 8.72 1.05 10.93 3.19 10.93 5.82 C 10.93 8.46 8.73 10.59 6.01 10.59 C 3.3 10.59 1.09 8.45 1.09 5.82 L 1.09 5.82 Z M 1.09 5.82" />
</svg>